<svg width="512" height="512" viewBox="0 0 512 512" fill="none" xmlns="http://www.w3.org/2000/svg">
    <rect width="512" height="512" rx="85" fill="#0B0F19"/>
    <path d="M64 96 C64 64 64 64 128 64 H384 C448 64 448 64 448 96 V288 C448 384 256 448 256 448 S64 384 64 288 V96 Z" fill="#121826" stroke="#00BFFF" stroke-opacity="0.3" stroke-width="8"/>
    <path d="M256 220 C200 210 160 240 160 280 V360 H256 V220 Z" fill="#1E293B"/>
    <path d="M256 220 C312 210 352 240 352 280 V360 H256 V220 Z" fill="#1E293B"/>
    <path d="M160 360 C160 380 200 390 256 390 C312 390 352 380 352 360 H160 Z" fill="#293548"/>
    <path d="M160 280 C160 240 200 210 256 220 C312 210 352 240 352 280" stroke="#00BFFF" stroke-opacity="0.5" stroke-width="6" stroke-linecap="round"/>
    <circle cx="256" cy="180" r="40" fill="#FBBF24"/>
    <path d="M256 180 L256 140 M256 220 L256 260 M200 180 L160 180 M312 180 L352 180 M216 140 L190 114 M300 140 L326 114 M216 220 L190 246 M300 220 L326 246" stroke="#FBBF24" stroke-width="8" stroke-linecap="round" opacity="0.5"/>
</svg>
