<svg viewBox="0 0 512 512" fill="none" xmlns="http://www.w3.org/2000/svg">
<rect width="512" height="512" fill="#0f172a"/>
<g transform="translate(80, 80)">
    <path d="M0 55.4286C0 24.802 24.802 0 55.4286 0H296.571C327.198 0 352 24.802 352 55.4286V249.231C352 256.49 349.025 263.486 343.682 268.829L220.253 392.258C209.702 402.809 193.309 406.843 177.343 403.968C161.377 401.093 147.886 391.64 140.354 377.962L5.92582 268.829C0.975418 263.486 0 256.49 0 249.231V55.4286Z" fill="#2563eb"/>
    <path d="M256 128H112V176H208V224H112V272H256V320H64V80H256V128Z" fill="white"/>
</g>
</svg>
